<svg width="148" height="28" viewBox="0 0 148 28" fill="none" xmlns="http://www.w3.org/2000/svg">
<g id="Group 38">
<path id="Star 1" d="M13.4562 3.83473C14.0074 2.72338 15.5926 2.72338 16.1438 3.83473L18.09 7.75878C18.4653 8.51535 19.1971 9.03134 20.0357 9.13063L24.3873 9.64585C25.6734 9.79812 26.1751 11.399 25.2059 12.258L22.1578 14.9594C21.4903 15.551 21.1886 16.4534 21.3659 17.3275L22.1751 21.3154C22.4261 22.5522 21.1306 23.5272 20.0116 22.9437L15.9559 20.8289C15.2316 20.4512 14.3684 20.4512 13.6441 20.8289L9.58844 22.9437C8.46941 23.5272 7.17388 22.5522 7.42485 21.3154L8.23406 17.3275C8.41144 16.4534 8.10967 15.551 7.44216 14.9594L4.39413 12.258C3.42491 11.399 3.92657 9.79812 5.21266 9.64585L9.56425 9.13063C10.4029 9.03134 11.1347 8.51535 11.51 7.75878L13.4562 3.83473Z" fill="#FDFF8D" stroke="black"/>
<path id="Star 2" d="M43.0562 3.83473C43.6074 2.72338 45.1926 2.72338 45.7438 3.83473L47.69 7.75878C48.0652 8.51535 48.7971 9.03134 49.6357 9.13063L53.9873 9.64585C55.2734 9.79812 55.7751 11.399 54.8058 12.258L51.7578 14.9594C51.0903 15.551 50.7885 16.4534 50.9659 17.3275L51.7751 21.3154C52.0261 22.5522 50.7306 23.5272 49.6115 22.9437L45.5559 20.8289C44.8316 20.4512 43.9684 20.4512 43.2441 20.8289L39.1884 22.9437C38.0694 23.5272 36.7739 22.5522 37.0248 21.3154L37.834 17.3275C38.0114 16.4534 37.7096 15.551 37.0421 14.9594L33.9941 12.258C33.0249 11.399 33.5265 9.79812 34.8126 9.64585L39.1642 9.13063C40.0029 9.03134 40.7347 8.51535 41.11 7.75878L43.0562 3.83473Z" fill="#FDFF8D" stroke="black"/>
<path id="Star 3" d="M72.6562 3.83473C73.2074 2.72338 74.7926 2.72338 75.3438 3.83473L77.29 7.75878C77.6653 8.51535 78.3971 9.03134 79.2358 9.13063L83.5873 9.64585C84.8734 9.79812 85.3751 11.399 84.4059 12.258L81.3579 14.9594C80.6903 15.551 80.3886 16.4534 80.5659 17.3275L81.3752 21.3154C81.6261 22.5522 80.3306 23.5272 79.2116 22.9437L75.1559 20.8289C74.4316 20.4512 73.5684 20.4512 72.8441 20.8289L68.7885 22.9437C67.6694 23.5272 66.3739 22.5522 66.6249 21.3154L67.4341 17.3275C67.6115 16.4534 67.3097 15.551 66.6422 14.9594L63.5941 12.258C62.6249 11.399 63.1266 9.79812 64.4127 9.64585L68.7643 9.13063C69.6029 9.03134 70.3348 8.51535 70.71 7.75878L72.6562 3.83473Z" fill="#FDFF8D" stroke="black"/>
<path id="Star 4" d="M102.256 3.83473C102.807 2.72338 104.393 2.72338 104.944 3.83473L106.89 7.75878C107.265 8.51535 107.997 9.03134 108.836 9.13063L113.187 9.64585C114.473 9.79812 114.975 11.399 114.006 12.258L110.958 14.9594C110.29 15.551 109.989 16.4534 110.166 17.3275L110.975 21.3154C111.226 22.5522 109.931 23.5272 108.812 22.9437L104.756 20.8289C104.032 20.4512 103.168 20.4512 102.444 20.8289L98.3884 22.9437C97.2694 23.5272 95.9739 22.5522 96.2248 21.3154L97.034 17.3275C97.2114 16.4534 96.9097 15.551 96.2421 14.9594L93.1941 12.258C92.2249 11.399 92.7266 9.79812 94.0126 9.64585L98.3642 9.13063C99.2029 9.03134 99.9347 8.51535 100.31 7.75878L102.256 3.83473Z" fill="#FDFF8D" stroke="black"/>
<path id="Star 5" d="M131.856 3.83473C132.407 2.72338 133.993 2.72338 134.544 3.83473L136.49 7.75878C136.865 8.51535 137.597 9.03134 138.436 9.13063L142.787 9.64585C144.073 9.79812 144.575 11.399 143.606 12.258L140.558 14.9594C139.89 15.551 139.589 16.4534 139.766 17.3275L140.575 21.3154C140.826 22.5522 139.531 23.5272 138.412 22.9437L134.356 20.8289C133.632 20.4512 132.768 20.4512 132.044 20.8289L127.988 22.9437C126.869 23.5272 125.574 22.5522 125.825 21.3154L126.634 17.3275C126.811 16.4534 126.51 15.551 125.842 14.9594L122.794 12.258C121.825 11.399 122.327 9.79812 123.613 9.64585L127.964 9.13063C128.803 9.03134 129.535 8.51535 129.91 7.75878L131.856 3.83473Z" fill="#FDFF8D" stroke="black"/>
</g>
</svg>
