<svg width="78" height="33" viewBox="0 0 78 33" fill="none" xmlns="http://www.w3.org/2000/svg">
<path d="M69.5877 26.2878C67.9557 26.2878 66.5397 25.9158 65.3397 25.1718C64.1397 24.4278 63.2037 23.3838 62.5317 22.0398C61.8837 20.6958 61.5597 19.0998 61.5597 17.2518C61.5597 15.8838 61.7397 14.6478 62.0997 13.5438C62.4837 12.4398 63.0237 11.4918 63.7197 10.6998C64.4397 9.88382 65.2917 9.27182 66.2757 8.86382C67.2837 8.43182 68.3877 8.21582 69.5877 8.21582C71.2437 8.21582 72.6717 8.58782 73.8717 9.33182C75.0717 10.0758 75.9957 11.1318 76.6437 12.4998C77.3157 13.8438 77.6517 15.4278 77.6517 17.2518C77.6517 18.6438 77.4597 19.8918 77.0757 20.9958C76.7157 22.0998 76.1757 23.0478 75.4557 23.8398C74.7597 24.6318 73.9197 25.2438 72.9357 25.6758C71.9517 26.0838 70.8357 26.2878 69.5877 26.2878ZM69.5877 24.4518C70.7877 24.4518 71.8197 24.1758 72.6837 23.6238C73.5717 23.0478 74.2437 22.2198 74.6997 21.1398C75.1797 20.0598 75.4197 18.7638 75.4197 17.2518C75.4197 14.9718 74.8917 13.2078 73.8357 11.9598C72.8037 10.7118 71.3877 10.0878 69.5877 10.0878C68.4117 10.0878 67.3797 10.3758 66.4917 10.9518C65.6277 11.5038 64.9557 12.3198 64.4757 13.3998C64.0197 14.4558 63.7917 15.7398 63.7917 17.2518C63.7917 19.5558 64.3197 21.3318 65.3757 22.5798C66.4317 23.8278 67.8357 24.4518 69.5877 24.4518Z" fill="#996C74"/>
<path d="M48.7032 32.7678C47.4072 32.7678 46.1472 32.5998 44.9232 32.2638C43.7232 31.9518 42.6312 31.4358 41.6472 30.7158C41.4552 30.5958 41.3232 30.4398 41.2512 30.2478C41.2032 30.0558 41.2032 29.8638 41.2512 29.6718C41.2992 29.5038 41.3832 29.3478 41.5032 29.2038C41.6472 29.0598 41.8032 28.9758 41.9712 28.9518C42.1632 28.9278 42.3552 28.9638 42.5472 29.0598C43.6032 29.7558 44.6112 30.2358 45.5712 30.4998C46.5552 30.7878 47.5752 30.9318 48.6312 30.9318C50.3832 30.9318 51.7152 30.4398 52.6272 29.4558C53.5392 28.4958 53.9952 27.1158 53.9952 25.3158V20.8518H54.3552C53.9952 22.3398 53.2272 23.5038 52.0512 24.3438C50.8752 25.1838 49.4832 25.6038 47.8752 25.6038C46.2672 25.6038 44.8752 25.2438 43.6992 24.5238C42.5232 23.7798 41.6112 22.7598 40.9632 21.4638C40.3392 20.1438 40.0272 18.6198 40.0272 16.8918C40.0272 15.5958 40.2072 14.4198 40.5672 13.3638C40.9272 12.3078 41.4432 11.3958 42.1152 10.6278C42.8112 9.85982 43.6392 9.27182 44.5992 8.86382C45.5592 8.43182 46.6512 8.21582 47.8752 8.21582C49.4832 8.21582 50.8752 8.64782 52.0512 9.51182C53.2272 10.3518 53.9832 11.4918 54.3192 12.9318L53.9592 13.1478V9.43982C53.9592 9.05582 54.0552 8.76782 54.2472 8.57582C54.4392 8.38382 54.7032 8.28782 55.0392 8.28782C55.3992 8.28782 55.6632 8.38382 55.8312 8.57582C56.0232 8.76782 56.1192 9.05582 56.1192 9.43982V24.9918C56.1192 27.5598 55.4952 29.4918 54.2472 30.7878C52.9992 32.1078 51.1512 32.7678 48.7032 32.7678ZM48.1272 23.7318C49.3272 23.7318 50.3592 23.4558 51.2232 22.9038C52.1112 22.3278 52.7952 21.5358 53.2752 20.5278C53.7552 19.4958 53.9952 18.2838 53.9952 16.8918C53.9952 14.8038 53.4672 13.1478 52.4112 11.9238C51.3552 10.6998 49.9272 10.0878 48.1272 10.0878C46.9272 10.0878 45.8832 10.3638 44.9952 10.9158C44.1072 11.4678 43.4232 12.2598 42.9432 13.2918C42.4872 14.2998 42.2592 15.4998 42.2592 16.8918C42.2592 18.9798 42.7872 20.6478 43.8432 21.8958C44.8992 23.1198 46.3272 23.7318 48.1272 23.7318Z" fill="#996C74"/>
<path d="M27.6477 26.2878C26.0157 26.2878 24.5997 25.9158 23.3997 25.1718C22.1997 24.4278 21.2637 23.3838 20.5917 22.0398C19.9437 20.6958 19.6197 19.0998 19.6197 17.2518C19.6197 15.8838 19.7997 14.6478 20.1597 13.5438C20.5437 12.4398 21.0837 11.4918 21.7797 10.6998C22.4997 9.88382 23.3517 9.27182 24.3357 8.86382C25.3437 8.43182 26.4477 8.21582 27.6477 8.21582C29.3037 8.21582 30.7317 8.58782 31.9317 9.33182C33.1317 10.0758 34.0557 11.1318 34.7037 12.4998C35.3757 13.8438 35.7117 15.4278 35.7117 17.2518C35.7117 18.6438 35.5197 19.8918 35.1357 20.9958C34.7757 22.0998 34.2357 23.0478 33.5157 23.8398C32.8197 24.6318 31.9797 25.2438 30.9957 25.6758C30.0117 26.0838 28.8957 26.2878 27.6477 26.2878ZM27.6477 24.4518C28.8477 24.4518 29.8797 24.1758 30.7437 23.6238C31.6317 23.0478 32.3037 22.2198 32.7597 21.1398C33.2397 20.0598 33.4797 18.7638 33.4797 17.2518C33.4797 14.9718 32.9517 13.2078 31.8957 11.9598C30.8637 10.7118 29.4477 10.0878 27.6477 10.0878C26.4717 10.0878 25.4397 10.3758 24.5517 10.9518C23.6877 11.5038 23.0157 12.3198 22.5357 13.3998C22.0797 14.4558 21.8517 15.7398 21.8517 17.2518C21.8517 19.5558 22.3797 21.3318 23.4357 22.5798C24.4917 23.8278 25.8957 24.4518 27.6477 24.4518Z" fill="#996C74"/>
<path d="M2.19682 25.9999C1.71682 25.9999 1.34481 25.8679 1.08081 25.6039C0.816814 25.3159 0.684814 24.9319 0.684814 24.4519V1.98794C0.684814 1.48394 0.804815 1.09994 1.04482 0.835941C1.30882 0.571942 1.68081 0.439941 2.16081 0.439941C2.64081 0.439941 3.00081 0.571942 3.24081 0.835941C3.50481 1.09994 3.63681 1.48394 3.63681 1.98794V23.4079H15.4448C15.8768 23.4079 16.2128 23.5279 16.4528 23.7679C16.6928 23.9839 16.8128 24.2959 16.8128 24.7039C16.8128 25.1119 16.6928 25.4359 16.4528 25.6759C16.2128 25.8919 15.8768 25.9999 15.4448 25.9999H2.19682Z" fill="black"/>
</svg>
